<svg xmlns="http://www.w3.org/2000/svg" width="18" height="18" viewBox="0 0 18 18">
  <g>
    <path d="M14.34,2A1.66,1.66,0,0,1,16,3.66V14.34A1.66,1.66,0,0,1,14.34,16H3.66A1.66,1.66,0,0,1,2,14.34V3.66A1.66,1.66,0,0,1,3.66,2H14.34m0-2H3.66A3.66,3.66,0,0,0,0,3.66V14.34A3.66,3.66,0,0,0,3.66,18H14.34A3.66,3.66,0,0,0,18,14.34V3.66A3.66,3.66,0,0,0,14.34,0Z"/>
    <path d="M5.5,4A1.5,1.5,0,1,0,7,5.5,1.5,1.5,0,0,0,5.5,4Z"/>
    <path d="M12.5,11A1.5,1.5,0,1,0,14,12.5,1.5,1.5,0,0,0,12.5,11Z"/>
  </g>
</svg>
